<mxfile host="Electron" modified="2023-11-10T06:09:49.024Z" agent="Mozilla/5.0 (Windows NT 10.0; Win64; x64) AppleWebKit/537.36 (KHTML, like Gecko) draw.io/22.0.3 Chrome/114.0.5735.289 Electron/25.8.4 Safari/537.36" etag="TibFNNw7IUxkar8yC-5l" version="22.0.3" type="device">
  <diagram name="Page-1" id="TBz62f7ZaRS-k3KAowQN">
    <mxGraphModel dx="1246" dy="519" grid="1" gridSize="10" guides="1" tooltips="1" connect="1" arrows="1" fold="1" page="1" pageScale="1" pageWidth="850" pageHeight="1100" math="0" shadow="0">
      <root>
        <mxCell id="0" />
        <mxCell id="1" parent="0" />
        <mxCell id="Bjyv0Pt2d-bd97Xqtb84-18" value="" style="rounded=1;whiteSpace=wrap;html=1;" vertex="1" parent="1">
          <mxGeometry x="20" y="180" width="120" height="60" as="geometry" />
        </mxCell>
        <mxCell id="Bjyv0Pt2d-bd97Xqtb84-19" value="http topnliked &lt;br&gt;post request" style="text;html=1;align=center;verticalAlign=middle;resizable=0;points=[];autosize=1;strokeColor=none;fillColor=none;" vertex="1" parent="1">
          <mxGeometry x="35" y="190" width="90" height="40" as="geometry" />
        </mxCell>
        <mxCell id="Bjyv0Pt2d-bd97Xqtb84-21" value="" style="edgeStyle=none;orthogonalLoop=1;jettySize=auto;html=1;rounded=0;exitX=1;exitY=0.5;exitDx=0;exitDy=0;" edge="1" parent="1" source="Bjyv0Pt2d-bd97Xqtb84-18">
          <mxGeometry width="100" relative="1" as="geometry">
            <mxPoint x="100" y="290" as="sourcePoint" />
            <mxPoint x="210" y="210" as="targetPoint" />
            <Array as="points" />
          </mxGeometry>
        </mxCell>
        <mxCell id="Bjyv0Pt2d-bd97Xqtb84-22" value="web&amp;nbsp;&lt;br&gt;ArticlerHandler&lt;br&gt;TopNLike&amp;nbsp;" style="rounded=1;whiteSpace=wrap;html=1;" vertex="1" parent="1">
          <mxGeometry x="210" y="180" width="120" height="60" as="geometry" />
        </mxCell>
        <mxCell id="Bjyv0Pt2d-bd97Xqtb84-23" value="" style="edgeStyle=none;orthogonalLoop=1;jettySize=auto;html=1;rounded=0;exitX=1;exitY=0.5;exitDx=0;exitDy=0;" edge="1" parent="1" source="Bjyv0Pt2d-bd97Xqtb84-22">
          <mxGeometry width="100" relative="1" as="geometry">
            <mxPoint x="300" y="250" as="sourcePoint" />
            <mxPoint x="410" y="210" as="targetPoint" />
            <Array as="points" />
          </mxGeometry>
        </mxCell>
        <mxCell id="Bjyv0Pt2d-bd97Xqtb84-25" value="" style="rounded=1;whiteSpace=wrap;html=1;" vertex="1" parent="1">
          <mxGeometry x="410" y="80" width="120" height="260" as="geometry" />
        </mxCell>
        <mxCell id="Bjyv0Pt2d-bd97Xqtb84-26" value="" style="endArrow=none;html=1;rounded=0;entryX=1;entryY=0.5;entryDx=0;entryDy=0;" edge="1" parent="1" target="Bjyv0Pt2d-bd97Xqtb84-25">
          <mxGeometry width="50" height="50" relative="1" as="geometry">
            <mxPoint x="390" y="210" as="sourcePoint" />
            <mxPoint x="440" y="160" as="targetPoint" />
          </mxGeometry>
        </mxCell>
        <mxCell id="Bjyv0Pt2d-bd97Xqtb84-27" value="InteractiveService&lt;br&gt;TopNLike" style="text;html=1;align=center;verticalAlign=middle;resizable=0;points=[];autosize=1;strokeColor=none;fillColor=none;" vertex="1" parent="1">
          <mxGeometry x="410" y="95" width="120" height="40" as="geometry" />
        </mxCell>
        <mxCell id="Bjyv0Pt2d-bd97Xqtb84-28" value="ArticleService&lt;br&gt;GetPublishedByIds" style="text;html=1;align=center;verticalAlign=middle;resizable=0;points=[];autosize=1;strokeColor=none;fillColor=none;" vertex="1" parent="1">
          <mxGeometry x="405" y="225" width="130" height="40" as="geometry" />
        </mxCell>
        <mxCell id="Bjyv0Pt2d-bd97Xqtb84-29" value="获取topnliked文章&lt;br&gt;对应的title content等" style="text;html=1;align=center;verticalAlign=middle;resizable=0;points=[];autosize=1;strokeColor=none;fillColor=none;" vertex="1" parent="1">
          <mxGeometry x="405" y="275" width="130" height="40" as="geometry" />
        </mxCell>
        <mxCell id="Bjyv0Pt2d-bd97Xqtb84-30" value="获取topnliked文章&lt;br&gt;对应的&lt;br&gt;LikeCnt &lt;br&gt;CollectCnt &lt;br&gt;ReadCnt" style="text;html=1;align=center;verticalAlign=middle;resizable=0;points=[];autosize=1;strokeColor=none;fillColor=none;" vertex="1" parent="1">
          <mxGeometry x="410" y="130" width="120" height="90" as="geometry" />
        </mxCell>
        <mxCell id="Bjyv0Pt2d-bd97Xqtb84-31" value="" style="edgeStyle=none;orthogonalLoop=1;jettySize=auto;html=1;rounded=0;" edge="1" parent="1">
          <mxGeometry width="100" relative="1" as="geometry">
            <mxPoint x="530" y="110" as="sourcePoint" />
            <mxPoint x="630" y="110" as="targetPoint" />
            <Array as="points" />
          </mxGeometry>
        </mxCell>
        <mxCell id="Bjyv0Pt2d-bd97Xqtb84-32" value="InteractiveRepository&amp;nbsp;&lt;br&gt;TopNLike" style="rounded=1;whiteSpace=wrap;html=1;" vertex="1" parent="1">
          <mxGeometry x="630" y="80" width="120" height="60" as="geometry" />
        </mxCell>
        <mxCell id="Bjyv0Pt2d-bd97Xqtb84-33" value="" style="edgeStyle=none;orthogonalLoop=1;jettySize=auto;html=1;rounded=0;exitX=0.962;exitY=1.125;exitDx=0;exitDy=0;exitPerimeter=0;" edge="1" parent="1" source="Bjyv0Pt2d-bd97Xqtb84-28">
          <mxGeometry width="100" relative="1" as="geometry">
            <mxPoint x="430" y="380" as="sourcePoint" />
            <mxPoint x="620" y="270" as="targetPoint" />
            <Array as="points" />
          </mxGeometry>
        </mxCell>
        <mxCell id="Bjyv0Pt2d-bd97Xqtb84-34" value="ArticleRepository&amp;nbsp;&lt;br&gt;GetPublishedByIds" style="rounded=1;whiteSpace=wrap;html=1;" vertex="1" parent="1">
          <mxGeometry x="620" y="240" width="120" height="60" as="geometry" />
        </mxCell>
        <mxCell id="Bjyv0Pt2d-bd97Xqtb84-35" value="" style="edgeStyle=none;orthogonalLoop=1;jettySize=auto;html=1;rounded=0;" edge="1" parent="1">
          <mxGeometry width="100" relative="1" as="geometry">
            <mxPoint x="740" y="270" as="sourcePoint" />
            <mxPoint x="830" y="270" as="targetPoint" />
            <Array as="points" />
          </mxGeometry>
        </mxCell>
        <mxCell id="Bjyv0Pt2d-bd97Xqtb84-36" value="ArticleDAO&amp;nbsp;&lt;br&gt;GetPublishedByIds" style="rounded=1;whiteSpace=wrap;html=1;" vertex="1" parent="1">
          <mxGeometry x="830" y="240" width="120" height="60" as="geometry" />
        </mxCell>
        <mxCell id="Bjyv0Pt2d-bd97Xqtb84-37" value="" style="edgeStyle=none;orthogonalLoop=1;jettySize=auto;html=1;rounded=0;" edge="1" parent="1">
          <mxGeometry width="100" relative="1" as="geometry">
            <mxPoint x="750" y="110" as="sourcePoint" />
            <mxPoint x="830" y="110" as="targetPoint" />
            <Array as="points" />
          </mxGeometry>
        </mxCell>
        <mxCell id="Bjyv0Pt2d-bd97Xqtb84-38" value="" style="rounded=1;whiteSpace=wrap;html=1;" vertex="1" parent="1">
          <mxGeometry x="830" y="30" width="120" height="170" as="geometry" />
        </mxCell>
        <mxCell id="Bjyv0Pt2d-bd97Xqtb84-40" value="" style="endArrow=none;html=1;rounded=0;" edge="1" parent="1">
          <mxGeometry width="50" height="50" relative="1" as="geometry">
            <mxPoint x="830" y="110" as="sourcePoint" />
            <mxPoint x="950" y="110" as="targetPoint" />
          </mxGeometry>
        </mxCell>
        <mxCell id="Bjyv0Pt2d-bd97Xqtb84-41" value="InteractiveCache&lt;br&gt;TopNLike" style="text;html=1;align=center;verticalAlign=middle;resizable=0;points=[];autosize=1;strokeColor=none;fillColor=none;" vertex="1" parent="1">
          <mxGeometry x="835" y="35" width="110" height="40" as="geometry" />
        </mxCell>
        <mxCell id="Bjyv0Pt2d-bd97Xqtb84-42" value="InteractiveDAO&amp;nbsp;&lt;br&gt;TopNLiked" style="text;html=1;align=center;verticalAlign=middle;resizable=0;points=[];autosize=1;strokeColor=none;fillColor=none;" vertex="1" parent="1">
          <mxGeometry x="835" y="125" width="110" height="40" as="geometry" />
        </mxCell>
        <mxCell id="Bjyv0Pt2d-bd97Xqtb84-43" value="命中缓存直接返回" style="text;html=1;align=center;verticalAlign=middle;resizable=0;points=[];autosize=1;strokeColor=none;fillColor=none;" vertex="1" parent="1">
          <mxGeometry x="830" y="80" width="120" height="30" as="geometry" />
        </mxCell>
        <mxCell id="Bjyv0Pt2d-bd97Xqtb84-44" value="未命中缓存查询 数据库" style="text;html=1;align=center;verticalAlign=middle;resizable=0;points=[];autosize=1;strokeColor=none;fillColor=none;" vertex="1" parent="1">
          <mxGeometry x="815" y="160" width="150" height="30" as="geometry" />
        </mxCell>
      </root>
    </mxGraphModel>
  </diagram>
</mxfile>
